<svg viewBox="0 0 80 80" xmlns="http://www.w3.org/2000/svg">
  <!-- Car body -->
  <path d="M6 44 L6 36 L14 28 L22 18 L36 18 L42 26 L58 26 L66 18 L74 28 L78 36 L78 44 Z" fill="none" stroke="currentColor" stroke-width="2.5" stroke-linejoin="round"/>
  <!-- Windows -->
  <path d="M16 30 L22 22 L34 22 L34 30 Z" fill="currentColor" opacity="0.06" stroke="currentColor" stroke-width="1.5" stroke-linejoin="round"/>
  <path d="M60 30 L66 22 L72 30 Z" fill="currentColor" opacity="0.06" stroke="currentColor" stroke-width="1.5" stroke-linejoin="round"/>
  <!-- Door line -->
  <line x1="38" y1="28" x2="38" y2="44" stroke="currentColor" stroke-width="1.5" opacity="0.15"/>
  <line x1="56" y1="28" x2="56" y2="44" stroke="currentColor" stroke-width="1.5" opacity="0.15"/>
  <!-- Side trim -->
  <line x1="14" y1="38" x2="68" y2="38" stroke="currentColor" stroke-width="1.5" opacity="0.12"/>
  <!-- Wheels -->
  <circle cx="20" cy="50" r="9" fill="none" stroke="currentColor" stroke-width="2.5"/>
  <circle cx="20" cy="50" r="5" fill="none" stroke="currentColor" stroke-width="1.5"/>
  <circle cx="20" cy="50" r="2.5" fill="currentColor"/>
  <circle cx="60" cy="50" r="9" fill="none" stroke="currentColor" stroke-width="2.5"/>
  <circle cx="60" cy="50" r="5" fill="none" stroke="currentColor" stroke-width="1.5"/>
  <circle cx="60" cy="50" r="2.5" fill="currentColor"/>
  <!-- Spark / repair star -->
  <path d="M40 8 L42 14 L48 12 L44 18 L50 22 L44 26 L48 32 L42 30 L40 36 L38 30 L32 32 L36 26 L30 22 L36 18 L32 12 L38 14 Z" fill="#d42020" opacity="0.85"/>
  <!-- Paint dots -->
  <circle cx="10" cy="12" r="2" fill="#d42020" opacity="0.5"/>
  <circle cx="16" cy="8" r="1.5" fill="#d42020" opacity="0.35"/>
  <circle cx="6" cy="16" r="1" fill="#d42020" opacity="0.25"/>
</svg>
